# xmcd
#
# Track frame offsets:
#	150
#	26132
#	41507
#	59927
#	75146
#	93032
#	111658
#	134046
#	155841
#	171593
#	192398
#	210063
#	231035
#	252834
#	274180
#	292341
#	312809
#
# Disc length: 4407 seconds
#
# Revision: 1
# Processed by: cddbd v1.5.1PL2 Copyright (c) Steve Scherf et al.
# Submitted via: audiograbber 1.81.02
#
DISCID=fe113511
DTITLE=Zucchero - Zu and Co. (English Language Version)
DYEAR=2004
DGENRE=Pop
TTITLE0=Dune Mosse
TTITLE1=Muoio Per Te
TTITLE2=Everybody's Got to Learn Sometime
TTITLE3=Mama Get Real
TTITLE4=Like the Sun - From Out of Nowhere
TTITLE5=Baila Morena
TTITLE6=I Lay Down
TTITLE7=Blue
TTITLE8=Pure Love
TTITLE9=A Wonderful World
TTITLE10=Pippo - Nasty Guy
TTITLE11=Hey Man - Sing A Song
TTITLE12=The Flight
TTITLE13=Cosi' Celeste
TTITLE14=Diavolo in Me - A Devil in Me
TTITLE15=Senza Una Donna - Without a Woman
TTITLE16=Il Mare Impetuoso Al Tramonto
EXTD=
EXTT0=
EXTT1=
EXTT2=
EXTT3=
EXTT4=
EXTT5=
EXTT6=
EXTT7=
EXTT8=
EXTT9=
EXTT10=
EXTT11=
EXTT12=
EXTT13=
EXTT14=
EXTT15=
EXTT16=
PLAYORDER=
